<svg width="512" height="512" viewBox="0 0 512 512" fill="none" xmlns="http://www.w3.org/2000/svg">
  <!-- Abstract folder / container -->
  <path d="M148 184C148 166.327 162.327 152 180 152H232C242.609 152 252.783 156.214 260.284 163.716L276.284 179.716C283.786 187.217 293.961 191.431 304.569 191.431H332C349.673 191.431 364 205.758 364 223.431V304C364 339.346 335.346 368 300 368H212C176.654 368 148 339.346 148 304V184Z" fill="white"/>
  <!-- Abstract connected idea nodes -->
  <circle cx="214" cy="252" r="18" fill="#111111"/>
  <circle cx="298" cy="228" r="14" fill="#111111"/>
  <circle cx="286" cy="304" r="16" fill="#111111"/>
  <path d="M230 247L284 232" stroke="#111111" stroke-width="10" stroke-linecap="round"/>
  <path d="M224 266L274 294" stroke="#111111" stroke-width="10" stroke-linecap="round"/>
</svg>
